<mxfile host="app.diagrams.net" modified="2020-07-18T19:11:38.162Z" agent="5.0 (Macintosh; Intel Mac OS X 10_15_1) AppleWebKit/537.36 (KHTML, like Gecko) Chrome/83.0.4103.116 Safari/537.36" etag="gdche5CeXVlgmzGQZnTL" version="13.4.6" type="github">
  <diagram id="u_K-6QqfffqJ-gNHC_0k" name="Page-1">
    <mxGraphModel dx="1298" dy="783" grid="1" gridSize="10" guides="1" tooltips="1" connect="1" arrows="1" fold="1" page="1" pageScale="1" pageWidth="850" pageHeight="1100" math="0" shadow="0">
      <root>
        <mxCell id="0" />
        <mxCell id="1" parent="0" />
        <mxCell id="cuI4yCnbOp-XfPbR6kko-1" value="" style="rounded=0;whiteSpace=wrap;html=1;" vertex="1" parent="1">
          <mxGeometry x="250" y="230" width="120" height="60" as="geometry" />
        </mxCell>
      </root>
    </mxGraphModel>
  </diagram>
</mxfile>
